<?xml version="1.0" standalone="no"?>
<!DOCTYPE svg PUBLIC "-//W3C//DTD SVG 20010904//EN"
 "http://www.w3.org/TR/2001/REC-SVG-20010904/DTD/svg10.dtd">
<svg version="1.0" xmlns="http://www.w3.org/2000/svg"
 width="1280.000000pt" height="797.000000pt" viewBox="0 0 1280.000000 797.000000"
 preserveAspectRatio="xMidYMid meet">

<g transform="translate(0.000000,797.000000) scale(0.100000,-0.100000)"
fill="#000000" stroke="none">
<path d="M0 3985 l0 -3985 6400 0 6400 0 0 3985 0 3985 -6400 0 -6400 0 0
-3985z m7819 831 c8 -10 6 -18 -9 -31 -11 -10 -20 -13 -20 -7 0 6 5 14 10 17
21 13 9 25 -25 25 -19 0 -35 5 -35 10 0 6 -7 10 -16 10 -8 0 -13 4 -9 9 7 12
89 -15 104 -33z m-1600 -55 c-15 -5 -22 6 -14 19 6 9 10 9 16 -1 5 -8 4 -15
-2 -18z m1696 8 c11 -17 2 -18 -19 -3 -17 12 -17 14 -4 14 9 0 20 -5 23 -11z
m115 -19 c0 -5 -2 -10 -4 -10 -3 0 -8 5 -11 10 -3 6 -1 10 4 10 6 0 11 -4 11
-10z m417 -22 c-3 -7 -5 -2 -5 12 0 14 2 19 5 13 2 -7 2 -19 0 -25z m77 0
c-10 -16 17 -28 66 -28 44 -1 44 -1 20 -15 -17 -10 -20 -14 -9 -15 17 0 34
-26 31 -46 -1 -6 20 -11 53 -11 31 0 58 -3 62 -7 3 -3 -5 -6 -18 -6 -14 0 -30
-5 -36 -11 -17 -17 -124 18 -116 38 9 24 -73 83 -96 69 -17 -11 0 27 18 41 18
13 35 7 25 -9z m-444 -3 c0 -8 -4 -15 -10 -15 -5 0 -10 7 -10 15 0 8 5 15 10
15 6 0 10 -7 10 -15z m60 -34 c0 -5 -7 -14 -15 -21 -8 -7 -15 -10 -15 -7 0 3
-3 12 -6 21 -4 12 0 16 15 16 12 0 21 -4 21 -9z m-1825 -41 c4 -7 12 -7 24 0
16 8 20 5 23 -15 3 -14 2 -25 -3 -25 -4 0 -14 -3 -22 -6 -10 -3 -18 2 -22 16
-5 15 -12 19 -26 15 -14 -5 -17 -3 -13 9 7 18 30 21 39 6z m1785 -10 c0 -5 -7
-10 -16 -10 -8 0 -12 5 -9 10 3 6 10 10 16 10 5 0 9 -4 9 -10z m95 -40 c3 -5
-1 -10 -9 -10 -9 0 -16 5 -16 10 0 6 4 10 9 10 6 0 13 -4 16 -10z m-1925 -41
c16 -30 8 -31 -13 -3 -10 13 -13 24 -8 24 6 0 15 -9 21 -21z m2490 6 c0 -2
-10 -10 -22 -16 -21 -11 -22 -11 -9 4 13 16 31 23 31 12z m-671 -26 c-16 -10
-23 -4 -14 10 3 6 11 8 17 5 6 -4 5 -9 -3 -15z m881 -95 c0 -2 -7 -4 -15 -4
-8 0 -15 4 -15 10 0 5 7 7 15 4 8 -4 15 -8 15 -10z m-220 -54 c0 -5 -7 -10
-16 -10 -8 0 -12 5 -9 10 3 6 10 10 16 10 5 0 9 -4 9 -10z m180 0 c0 -5 -2
-10 -4 -10 -3 0 -8 5 -11 10 -3 6 -1 10 4 10 6 0 11 -4 11 -10z m70 -40 c0 -5
-5 -10 -11 -10 -5 0 -7 5 -4 10 3 6 8 10 11 10 2 0 4 -4 4 -10z m-90 -24 c0
-3 -4 -8 -10 -11 -5 -3 -10 -1 -10 4 0 6 5 11 10 11 6 0 10 -2 10 -4z m25 -26
c3 -5 1 -10 -4 -10 -6 0 -11 5 -11 10 0 6 2 10 4 10 3 0 8 -4 11 -10z m43 -47
c-10 -2 -28 -2 -40 0 -13 2 -5 4 17 4 22 1 32 -1 23 -4z m87 -13 c-3 -5 -11
-10 -16 -10 -6 0 -7 5 -4 10 3 6 11 10 16 10 6 0 7 -4 4 -10z m45 -51 c8 0 4
-4 -10 -8 -28 -9 -50 -4 -50 11 0 6 10 8 23 4 12 -3 29 -6 37 -7z m-5 -57 c4
-10 0 -12 -11 -8 -8 3 -20 6 -25 6 -5 0 -9 4 -9 8 0 14 39 8 45 -6z m125 8 c0
-5 -5 -10 -11 -10 -5 0 -7 5 -4 10 3 6 8 10 11 10 2 0 4 -4 4 -10z m30 -50
c12 -8 9 -10 -12 -10 -15 0 -30 5 -33 10 -8 13 25 13 45 0z m8 -58 c3 -9 -2
-13 -14 -10 -9 1 -19 9 -22 16 -3 9 2 13 14 10 9 -1 19 -9 22 -16z m97 -62 c3
-5 -3 -10 -14 -10 -12 0 -21 5 -21 10 0 6 6 10 14 10 8 0 18 -4 21 -10z m313
-137 c-5 -25 -28 -28 -28 -4 0 12 6 21 16 21 9 0 14 -7 12 -17z m107 -50 c4
-54 -3 -63 -34 -44 -12 8 -13 16 -3 47 8 28 8 34 0 26 -19 -19 -30 -14 -18 9
7 12 19 19 32 17 16 -2 20 -12 23 -55z m-265 -63 c0 -5 -7 -10 -15 -10 -8 0
-15 5 -15 10 0 6 7 10 15 10 8 0 15 -4 15 -10z m-4405 -230 c3 -5 1 -10 -4
-10 -6 0 -11 5 -11 10 0 6 2 10 4 10 3 0 8 -4 11 -10z m2827 -12 c-7 -7 -12
-8 -12 -2 0 14 12 26 19 19 2 -3 -1 -11 -7 -17z m-1612 8 c0 -3 -4 -8 -10 -11
-5 -3 -10 -1 -10 4 0 6 5 11 10 11 6 0 10 -2 10 -4z m-1462 -24 c2 -7 -2 -10
-12 -6 -9 3 -16 11 -16 16 0 13 23 5 28 -10z m290 -8 c0 -15 -4 -22 -10 -16
-5 5 -6 16 -2 25 9 23 12 21 12 -9z m4765 11 c39 2 48 -8 21 -23 -11 -6 -13
-11 -5 -16 6 -4 11 -15 11 -24 0 -14 8 -17 48 -13 26 2 52 8 59 13 7 5 17 7
23 3 7 -4 -8 -20 -37 -39 -30 -21 -52 -29 -59 -24 -7 5 -33 1 -65 -12 -64 -24
-73 -25 -65 -5 7 20 -4 19 -33 -2 -19 -13 -28 -14 -42 -5 -27 17 -30 15 -24
-13 3 -14 8 -37 11 -52 4 -22 3 -25 -9 -14 -9 7 -18 8 -21 2 -7 -11 -46 -3
-46 10 0 5 -4 9 -9 9 -12 0 -8 -39 7 -67 19 -34 15 -48 -25 -88 -43 -43 -38
-49 46 -58 30 -4 58 -12 62 -18 10 -17 169 -22 169 -5 0 17 36 26 127 32 62 3
72 2 66 -12 -4 -12 -16 -14 -58 -9 -60 8 -120 -7 -129 -32 -5 -11 -14 -14 -36
-9 -22 4 -30 2 -30 -9 0 -8 -5 -15 -11 -15 -6 0 -9 7 -5 15 3 8 1 15 -3 15 -5
0 -11 -6 -14 -12 -2 -9 -25 -13 -68 -12 -35 1 -58 -1 -51 -4 9 -2 4 -9 -13
-18 -15 -8 -32 -11 -38 -7 -6 4 -7 1 -2 -7 4 -7 2 -15 -4 -20 -7 -4 8 -15 40
-28 46 -20 53 -20 63 -7 16 22 190 28 229 8 15 -7 27 -15 27 -17 0 -3 -23 -12
-52 -22 -37 -12 -53 -14 -56 -5 -2 6 -18 11 -35 10 -30 -1 -31 -1 -7 -8 l25
-7 -26 -5 c-14 -3 -34 -3 -45 1 -24 8 -168 -12 -158 -22 4 -5 17 -8 29 -8 12
0 30 -6 41 -14 18 -13 18 -15 2 -21 -10 -4 -36 -8 -58 -8 -22 -1 -42 -8 -45
-14 -2 -7 -17 -13 -32 -14 -15 0 -37 -4 -48 -9 -18 -8 -18 -9 5 -10 14 0 36
-7 50 -16 22 -12 22 -14 5 -13 -11 1 -29 1 -40 0 -17 -1 -17 -3 -5 -11 19 -12
6 -24 -45 -40 -22 -7 -45 -20 -51 -28 -6 -8 -24 -16 -40 -18 -16 -1 -56 -6
-89 -9 -33 -4 -63 -12 -67 -19 -6 -8 -8 -8 -8 2 0 8 -23 12 -80 12 -44 0 -80
-4 -80 -8 0 -5 -27 -9 -61 -10 -43 -1 -58 2 -53 10 5 8 -4 9 -32 4 -21 -4 -46
-7 -54 -6 -45 5 -125 -2 -137 -12 -9 -7 -13 -7 -13 1 0 6 -5 11 -11 11 -5 0
-7 -4 -4 -10 4 -6 -27 -10 -87 -10 -64 0 -88 -3 -78 -10 10 -7 -13 -10 -75
-10 -49 -1 -268 -2 -485 -3 -357 -3 -801 5 -1032 17 -51 3 -90 1 -93 -5 -4 -5
-11 -7 -16 -4 -5 4 -9 1 -9 -4 0 -6 -19 -11 -42 -12 -24 0 -52 -4 -63 -9 -19
-9 -19 -9 2 -16 26 -7 21 -24 -8 -24 -11 0 -23 -8 -26 -17 -4 -10 -9 -20 -12
-23 -12 -10 -31 -50 -31 -65 0 -9 6 -15 13 -14 6 1 26 1 42 0 l30 -2 -30 -16
c-21 -11 -30 -13 -33 -4 -3 8 -9 6 -17 -6 -11 -14 -16 -16 -26 -5 -7 6 -19 12
-26 12 -11 0 -11 -4 -1 -20 10 -16 19 -19 38 -15 19 5 22 4 13 -5 -16 -17
-145 -19 -149 -2 -1 7 0 8 3 2 7 -15 46 -13 40 3 -2 6 -11 11 -21 9 -9 -2 -16
2 -16 9 0 7 -11 0 -25 -15 -13 -14 -31 -26 -40 -26 -8 0 -15 -5 -15 -11 0 -12
22 -11 255 7 44 3 77 3 73 -1 -7 -8 -162 -26 -216 -25 -18 0 -31 -4 -28 -9 3
-4 -13 -5 -37 0 -43 7 -56 5 -43 -8 11 -11 186 -12 186 -2 0 5 28 9 63 8 80 0
47 -16 -56 -26 -58 -6 -66 -8 -42 -14 l30 -7 -28 -1 c-16 0 -36 3 -45 8 -9 5
-38 11 -64 13 l-48 5 0 -35 0 -35 51 5 c29 3 45 2 37 -3 -7 -5 -23 -9 -35 -9
-30 0 -54 -11 -47 -21 3 -5 1 -9 -4 -9 -5 0 -12 65 -15 144 -6 157 4 227 41
290 l21 36 -27 -19 c-50 -36 -164 -45 -208 -16 l-27 17 17 -23 c12 -18 16 -48
16 -135 l0 -111 -40 -6 c-22 -3 -70 -1 -107 4 -38 5 -90 12 -116 16 -27 3 -43
9 -37 13 7 4 21 5 31 3 10 -3 19 0 19 6 0 6 6 10 13 8 7 -1 11 6 10 18 -1 11
0 14 3 8 8 -18 24 -16 24 2 0 8 -7 15 -16 15 -12 0 -15 6 -10 24 4 16 1 26 -8
29 -9 4 -12 14 -9 26 3 14 0 21 -8 21 -10 1 -8 5 5 15 22 16 21 17 -61 35 -29
7 -50 16 -47 21 3 5 -23 10 -58 11 -35 0 -79 2 -98 2 -27 1 -36 5 -36 19 0 11
6 15 14 12 10 -4 12 0 8 10 -4 11 -2 14 7 8 6 -4 23 -6 37 -5 14 2 38 -2 54
-7 20 -8 33 -8 49 1 13 6 17 13 10 15 -7 3 -9 11 -6 20 4 10 2 14 -4 10 -12
-8 -49 30 -39 40 3 4 22 -10 40 -31 32 -34 37 -36 58 -24 13 7 26 18 30 23 5
6 8 5 8 -2 0 -7 5 -13 10 -13 6 0 10 7 10 15 0 18 -36 20 -43 3 -3 -10 -8 -10
-18 1 -9 9 -9 11 -1 7 6 -4 12 -2 12 3 0 6 -10 11 -22 11 -17 0 -19 3 -9 9 7
5 10 14 7 20 -11 17 4 13 64 -17 42 -21 56 -35 63 -58 7 -26 14 -30 40 -31 18
0 43 -3 57 -7 18 -5 16 -2 -10 13 -28 16 -31 20 -15 21 16 1 17 3 4 8 -21 9
-28 151 -7 153 7 1 2 4 -12 9 l-25 7 28 11 c29 12 39 26 10 15 -12 -5 -14 -3
-7 8 4 8 7 24 5 37 -1 14 3 22 13 22 9 0 13 6 10 14 -3 8 -11 13 -18 10 -7 -3
-13 2 -13 10 0 8 4 13 8 10 4 -2 10 0 14 6 3 5 -1 10 -9 10 -14 0 -14 3 2 18
9 11 27 18 40 17 12 -1 22 2 22 6 0 5 -4 9 -10 9 -5 0 -10 4 -10 10 0 12 22 9
32 -5 13 -18 9 -33 -12 -38 -11 -3 -20 -1 -20 4 0 4 -7 6 -15 3 -26 -10 -16
-22 15 -18 29 4 42 -10 18 -19 -7 -2 -9 -8 -5 -13 4 -5 12 -2 16 5 5 8 14 10
21 6 9 -5 11 -4 6 3 -4 7 0 12 11 13 17 1 17 2 1 6 -24 6 -22 15 7 36 25 18
25 18 34 -5 6 -13 10 -17 10 -10 1 6 6 12 12 12 6 0 9 -7 6 -14 -4 -9 -1 -13
6 -11 7 2 29 6 51 9 21 2 43 10 47 18 7 10 9 9 9 -4 0 -10 5 -18 10 -18 6 0
10 -6 10 -14 0 -8 4 -18 10 -21 5 -3 3 13 -5 36 -8 23 -15 43 -15 45 0 8 28 4
32 -4 2 -5 16 -12 31 -16 18 -4 26 -3 23 3 -4 5 3 9 14 8 23 -1 28 -17 5 -17
-8 0 -15 -5 -15 -11 0 -7 9 -9 23 -6 23 6 76 -28 63 -41 -4 -4 -12 1 -17 11
-6 9 -16 17 -24 17 -9 0 -3 -12 15 -32 16 -17 27 -34 24 -37 -3 -3 -9 0 -13 8
-7 10 -10 9 -14 -3 -4 -10 -1 -16 8 -16 9 0 12 -6 9 -15 -5 -12 -9 -13 -20 -4
-8 7 -17 9 -21 5 -3 -3 -1 -6 6 -6 14 0 11 -31 -4 -42 -5 -4 0 -8 13 -8 25 0
25 0 13 -33 -7 -19 -6 -27 3 -30 17 -7 14 -101 -4 -122 -7 -8 -20 -15 -30 -15
-10 0 -24 -8 -31 -17 -12 -15 -12 -16 1 -7 25 15 101 32 121 27 15 -4 19 0 19
20 0 17 11 32 39 50 44 30 98 47 87 28 -4 -6 -1 -11 9 -11 24 0 7 -20 -18 -21
-19 -1 -19 -2 -3 -6 15 -4 16 -7 5 -14 -8 -5 -20 -2 -30 7 -14 13 -18 13 -28
0 -8 -10 -9 -16 -1 -21 5 -3 10 2 10 12 1 17 1 17 11 1 5 -10 16 -18 24 -18 7
0 15 -6 18 -12 4 -10 7 -10 18 0 18 17 27 15 25 -5 -1 -14 7 -18 36 -20 21 0
36 2 34 6 -3 4 10 6 27 5 18 -2 51 6 74 16 24 11 51 20 62 20 33 0 50 11 44
27 -5 12 -3 14 6 8 8 -4 17 -2 22 6 6 10 9 11 9 2 0 -18 14 -16 40 7 12 11 26
17 30 15 4 -3 25 -7 46 -10 22 -2 33 -2 27 1 -19 8 -16 23 5 23 45 2 62 6 62
14 0 5 9 5 20 2 11 -4 20 -2 20 4 0 6 8 7 17 4 12 -5 15 -2 10 10 -5 14 0 17
32 17 27 0 49 8 76 30 21 17 41 28 44 25 3 -4 -1 -10 -9 -16 -10 -6 -12 -11
-4 -16 6 -5 13 -15 16 -23 4 -11 8 -9 15 8 8 21 10 22 22 8 15 -17 36 -22 26
-6 -3 6 -1 10 4 10 6 0 11 -7 11 -15 0 -8 5 -15 10 -15 6 0 10 12 10 28 0 21
2 24 10 12 5 -8 7 -23 4 -34 -4 -13 -2 -17 7 -13 15 5 15 9 4 42 l-7 20 17
-20 c9 -11 23 -19 31 -17 8 2 17 -4 20 -13 5 -12 14 -14 34 -10 36 8 209 9
217 2 3 -4 25 7 48 23 32 22 45 26 54 17 8 -8 11 -5 11 12 0 18 3 21 13 13 18
-16 50 -8 57 13 5 13 9 15 14 7 4 -7 16 -12 28 -12 15 0 19 5 15 20 -4 17 -2
18 16 8 28 -14 37 -23 15 -15 -9 3 -19 0 -22 -8 -2 -7 -17 -15 -32 -17 -15 -2
-30 -9 -32 -17 -3 -9 0 -11 8 -6 7 4 16 2 21 -6 7 -11 9 -10 9 4 0 10 7 17 18
17 14 0 15 -2 2 -10 -12 -8 -11 -10 7 -10 12 0 25 5 28 10 3 6 15 10 26 10 10
0 19 -4 19 -10 0 -5 7 -10 15 -10 8 0 15 4 15 9 0 11 239 11 246 0 7 -12 44
-11 44 1 0 6 11 10 23 10 13 0 26 3 30 6 3 3 40 6 81 7 69 0 96 8 64 20 -7 2
8 4 33 3 36 -1 45 -4 41 -15 -4 -11 -1 -13 14 -7 20 9 32 10 49 6 6 -1 30 -1
55 0 37 2 40 3 18 9 -30 7 -26 24 7 33 11 3 29 9 39 14 16 6 18 4 14 -19 -3
-18 -1 -27 7 -27 7 0 24 -9 38 -20 14 -11 37 -20 51 -20 14 0 26 -4 26 -10 0
-15 36 -12 50 5 7 9 22 12 39 9 36 -8 175 12 179 26 5 13 32 13 32 0 0 -5 -4
-10 -10 -10 -5 0 -10 -6 -10 -14 0 -15 29 -15 62 -1 24 10 13 24 -13 18 -18
-5 -20 -3 -14 17 6 19 4 21 -17 15 -16 -4 -19 -3 -9 3 7 5 9 12 5 15 -13 7
-74 -4 -74 -13 0 -4 -15 -10 -33 -12 -28 -3 -33 -1 -32 17 1 16 11 21 46 26
24 3 57 2 73 -2 32 -9 46 -5 46 15 0 9 -16 11 -57 8 -32 -2 -69 1 -83 7 -21 8
-18 9 23 8 26 -2 47 1 47 5 0 4 -20 8 -45 8 -39 0 -45 3 -45 21 0 16 5 20 19
16 10 -2 24 -1 31 3 7 4 -7 15 -37 29 -26 12 -55 26 -63 31 -8 5 -33 17 -55
26 -22 10 -42 19 -44 21 -8 6 32 43 46 43 22 0 27 29 8 50 -20 23 -12 40 19
40 13 0 29 7 37 16 11 13 9 14 -14 9 -17 -5 -27 -3 -27 4 0 6 7 12 15 12 28 3
33 4 41 12 4 4 -1 7 -12 8 -17 0 -16 1 4 9 12 5 22 14 22 20 0 6 4 9 9 5 5 -3
12 -1 16 5 9 15 77 43 98 41 9 -1 17 3 17 8 0 6 18 11 40 11 27 0 43 5 46 15
4 9 19 15 39 15 31 0 70 13 140 45 16 8 34 10 40 6 5 -4 27 -7 48 -6z m-3359
-11 c3 -8 2 -12 -4 -9 -6 3 -10 10 -10 16 0 14 7 11 14 -7z m-289 -24 c3 -5 1
-10 -4 -10 -6 0 -11 5 -11 10 0 6 2 10 4 10 3 0 8 -4 11 -10z m270 -11 c-10
-15 -25 -10 -19 6 4 8 10 12 15 9 5 -3 7 -10 4 -15z m-2380 1 c3 -5 -1 -10
-10 -10 -9 0 -13 5 -10 10 3 6 8 10 10 10 2 0 7 -4 10 -10z m1073 -10 c15 0
15 -2 2 -10 -15 -9 -30 4 -29 25 0 6 3 4 6 -2 2 -7 12 -13 21 -13z m1079 -12
c-3 -8 -6 -5 -6 6 -1 11 2 17 5 13 3 -3 4 -12 1 -19z m3326 15 c-7 -2 -21 -2
-30 0 -10 3 -4 5 12 5 17 0 24 -2 18 -5z m507 -3 c0 -5 -7 -7 -15 -4 -8 4 -15
8 -15 10 0 2 7 4 15 4 8 0 15 -4 15 -10z m-5235 -10 c3 -5 1 -10 -4 -10 -6 0
-11 5 -11 10 0 6 2 10 4 10 3 0 8 -4 11 -10z m1102 -12 c-3 -8 -6 -5 -6 6 -1
11 2 17 5 13 3 -3 4 -12 1 -19z m1273 5 c0 -14 -2 -15 -9 -4 -5 8 -14 10 -21
6 -9 -5 -11 -4 -6 3 11 18 36 14 36 -5z m-3096 -9 c3 -8 2 -12 -4 -9 -6 3 -10
10 -10 16 0 14 7 11 14 -7z m966 -4 c0 -11 -4 -20 -9 -20 -5 0 -7 9 -4 20 3
11 7 20 9 20 2 0 4 -9 4 -20z m1094 4 c5 -14 4 -15 -9 -4 -17 14 -19 20 -6 20
5 0 12 -7 15 -16z m1121 -4 c-3 -5 -1 -10 6 -10 7 0 10 -3 6 -6 -9 -9 -28 6
-22 17 4 5 8 9 11 9 3 0 2 -4 -1 -10z m-3195 -20 c0 -5 -5 -10 -11 -10 -5 0
-7 5 -4 10 3 6 8 10 11 10 2 0 4 -4 4 -10z m2670 0 c0 -5 -2 -10 -4 -10 -3 0
-8 5 -11 10 -3 6 -1 10 4 10 6 0 11 -4 11 -10z m585 -19 c-6 -5 -25 10 -25 20
0 5 6 4 14 -3 8 -7 12 -15 11 -17z m-745 -16 c0 -5 -5 -3 -10 5 -5 8 -10 20
-10 25 0 6 5 3 10 -5 5 -8 10 -19 10 -25z m27 13 c-3 -8 -6 -5 -6 6 -1 11 2
17 5 13 3 -3 4 -12 1 -19z m163 12 c0 -5 -2 -10 -4 -10 -3 0 -8 5 -11 10 -3 6
-1 10 4 10 6 0 11 -4 11 -10z m-2253 -6 c-3 -3 -12 -4 -19 -1 -8 3 -5 6 6 6
11 1 17 -2 13 -5z m1454 -17 c-10 -9 -11 -8 -5 6 3 10 9 15 12 12 3 -3 0 -11
-7 -18z m1309 9 c0 -2 -7 -9 -15 -16 -13 -11 -14 -10 -9 4 5 14 24 23 24 12z
m-2060 -10 c0 -2 -7 -7 -16 -10 -8 -3 -12 -2 -9 4 6 10 25 14 25 6z m1125 -57
c11 -33 -4 -39 -41 -19 -40 23 -48 25 -38 8 4 -7 4 -10 -1 -6 -4 4 -14 3 -22
-4 -11 -9 -12 -7 -7 7 5 13 4 16 -4 11 -7 -4 -12 -4 -12 1 1 12 26 43 35 43 4
0 2 -7 -5 -15 -7 -9 -9 -19 -5 -23 4 -4 10 -1 12 6 5 14 30 16 35 3 2 -4 14
-12 27 -16 l24 -7 -19 25 c-11 14 -22 23 -25 21 -3 -2 -6 4 -6 12 0 19 44 -21
52 -47z m395 57 c0 -3 -4 -8 -10 -11 -5 -3 -10 -1 -10 4 0 6 5 11 10 11 6 0
10 -2 10 -4z m280 0 c0 -2 -8 -10 -17 -17 -16 -13 -17 -12 -4 4 13 16 21 21
21 13z m-2998 -28 c-7 -7 -12 -8 -12 -2 0 6 3 14 7 17 3 4 9 5 12 2 2 -3 -1
-11 -7 -17z m1570 0 c-7 -7 -12 -8 -12 -2 0 14 12 26 19 19 2 -3 -1 -11 -7
-17z m883 12 c-3 -5 -12 -10 -18 -10 -7 0 -6 4 3 10 19 12 23 12 15 0z m182
-6 c3 -9 -17 -11 -47 -5 -3 1 2 6 10 11 17 11 32 8 37 -6z m-1127 -4 c8 -5 11
-10 5 -10 -5 0 -17 5 -25 10 -8 5 -10 10 -5 10 6 0 17 -5 25 -10z m537 -12 c2
-18 0 -20 -7 -8 -12 18 -13 30 -2 30 4 0 9 -10 9 -22z m38 12 c3 -5 1 -10 -4
-10 -6 0 -11 5 -11 10 0 6 2 10 4 10 3 0 8 -4 11 -10z m-2152 -30 c-3 -10 -11
-25 -19 -31 -16 -13 -19 -33 -4 -24 19 12 10 -14 -10 -28 -13 -9 -18 -21 -15
-33 3 -12 1 -10 -7 4 -7 14 -8 26 -2 30 5 4 10 14 12 22 2 8 9 22 16 30 7 8
16 23 19 33 9 23 16 22 10 -3z m1687 16 c0 -3 -4 -8 -10 -11 -5 -3 -10 -1 -10
4 0 6 5 11 10 11 6 0 10 -2 10 -4z m1692 -3 c-6 -3 -9 -10 -5 -16 4 -7 -1 -6
-10 2 -21 17 -21 17 6 18 12 0 16 -1 9 -4z m1302 -9 c3 -8 2 -12 -4 -9 -6 3
-10 10 -10 16 0 14 7 11 14 -7z m-3387 -16 c2 -17 0 -19 -7 -8 -5 8 -6 18 -4
22 8 12 10 10 11 -14z m233 18 c0 -3 -4 -8 -10 -11 -5 -3 -10 -1 -10 4 0 6 5
11 10 11 6 0 10 -2 10 -4z m280 -5 c0 -6 -4 -13 -10 -16 -5 -3 -10 1 -10 9 0
9 5 16 10 16 6 0 10 -4 10 -9z m1271 -19 c-5 -10 -18 -25 -28 -33 -12 -10 -11
-5 6 19 24 35 38 43 22 14z m394 8 c3 -5 1 -10 -4 -10 -6 0 -11 5 -11 10 0 6
2 10 4 10 3 0 8 -4 11 -10z m-1864 -32 c8 -15 8 -18 0 -14 -6 4 -16 16 -22 28
-8 15 -8 18 0 14 6 -4 16 -16 22 -28z m1305 7 c-9 -9 -16 -13 -16 -8 0 12 22
34 28 28 2 -2 -3 -11 -12 -20z m-1703 8 c-7 -2 -19 -2 -25 0 -7 3 -2 5 12 5
14 0 19 -2 13 -5z m880 -9 c21 -8 23 -24 1 -24 -9 0 -12 -5 -8 -12 4 -7 3 -8
-5 -4 -6 4 -9 11 -6 16 3 5 -3 16 -12 26 -13 12 -13 15 -3 11 8 -4 23 -10 33
-13z m497 12 c0 -2 -7 -7 -16 -10 -8 -3 -12 -2 -9 4 6 10 25 14 25 6z m770 -6
c0 -5 -4 -10 -10 -10 -5 0 -10 5 -10 10 0 6 5 10 10 10 6 0 10 -4 10 -10z
m-2020 -16 c0 -2 -7 -4 -15 -4 -8 0 -15 4 -15 10 0 5 7 7 15 4 8 -4 15 -8 15
-10z m425 5 c11 -16 1 -19 -13 -3 -7 8 -8 14 -3 14 5 0 13 -5 16 -11z m560 -9
c3 -5 2 -10 -4 -10 -5 0 -13 5 -16 10 -3 6 -2 10 4 10 5 0 13 -4 16 -10z m154
-26 c-15 -18 -23 -18 -16 0 3 7 0 19 -6 26 -10 10 -7 10 11 1 19 -10 21 -15
11 -27z m765 20 c3 -8 2 -12 -4 -9 -6 3 -10 10 -10 16 0 14 7 11 14 -7z
m-1809 -5 c11 -16 1 -19 -13 -3 -7 8 -8 14 -3 14 5 0 13 -5 16 -11z m1194 -10
c5 8 16 16 25 17 12 2 13 -1 3 -16 -6 -10 -15 -16 -20 -13 -4 3 -7 -2 -5 -10
2 -9 0 -16 -4 -16 -23 -2 -28 1 -28 19 0 11 -7 20 -15 20 -18 0 -20 -16 -2
-23 6 -3 2 -6 -9 -6 -12 -1 -25 6 -28 15 -8 22 -8 26 4 19 5 -3 18 -2 27 4 13
7 21 5 30 -7 11 -15 14 -15 22 -3z m-619 -24 c-14 -17 -40 -20 -40 -5 0 5 7 7
16 3 10 -4 17 2 21 18 4 13 8 18 11 11 2 -7 -2 -19 -8 -27z m60 5 c7 0 10 -3
7 -7 -4 -3 -1 -16 7 -27 9 -15 11 -28 3 -46 -7 -18 -11 -21 -15 -10 -3 8 -10
18 -16 22 -7 5 -4 8 6 8 11 0 15 5 12 15 -4 11 -13 13 -28 9 -19 -6 -19 -5 -7
10 11 13 11 20 3 28 -7 7 -12 17 -12 23 0 5 7 2 14 -7 7 -10 19 -18 26 -18z
m65 20 c7 -12 -12 -50 -26 -50 -16 0 -22 29 -9 45 14 17 26 19 35 5z m684 -18
c-1 -15 -2 -15 -6 1 -2 9 -9 14 -15 11 -7 -4 -8 -2 -4 5 10 15 26 4 25 -17z
m461 18 c0 -5 -5 -10 -11 -10 -5 0 -7 5 -4 10 3 6 8 10 11 10 2 0 4 -4 4 -10z
m614 -5 c11 -8 17 -17 14 -20 -3 -3 -13 1 -22 10 -9 9 -21 13 -27 9 -8 -4 -9
-3 -5 4 9 15 17 15 40 -3z m-3065 -18 c-27 -11 -69 -18 -69 -12 0 11 56 32 73
27 19 -5 19 -6 -4 -15z m711 19 c0 -3 -4 -8 -10 -11 -5 -3 -10 -1 -10 4 0 6 5
11 10 11 6 0 10 -2 10 -4z m807 -11 c0 -8 -4 -15 -9 -15 -4 0 -8 7 -8 15 0 8
4 15 8 15 5 0 9 -7 9 -15z m421 -10 c-3 -3 -9 2 -12 12 -6 14 -5 15 5 6 7 -7
10 -15 7 -18z m-883 6 c9 -16 -9 -20 -23 -5 -10 12 -10 14 2 14 8 0 17 -4 21
-9z m315 -1 c0 -5 -2 -10 -4 -10 -3 0 -8 5 -11 10 -3 6 -1 10 4 10 6 0 11 -4
11 -10z m110 -40 c0 -8 -7 -2 -15 14 -19 36 -19 45 0 20 8 -10 14 -26 15 -34z
m760 25 c0 -16 -6 -25 -15 -25 -8 0 -15 5 -15 10 0 6 5 10 10 10 6 0 10 7 10
15 0 8 2 15 5 15 3 0 5 -11 5 -25z m-580 5 c0 -5 -5 -10 -11 -10 -5 0 -7 5 -4
10 3 6 8 10 11 10 2 0 4 -4 4 -10z m760 -6 c0 -8 -4 -12 -10 -9 -5 3 -10 10
-10 16 0 5 5 9 10 9 6 0 10 -7 10 -16z m694 1 c-4 -8 -10 -15 -15 -15 -4 0 -6
7 -3 15 4 8 10 15 15 15 4 0 6 -7 3 -15z m136 -17 c0 -15 -25 -8 -37 11 -11
17 -10 18 13 7 13 -6 24 -14 24 -18z m953 25 c-7 -2 -19 -2 -25 0 -7 3 -2 5
12 5 14 0 19 -2 13 -5z m-4283 -36 c0 -5 -4 -5 -10 -2 -5 3 -10 14 -10 23 0
15 2 15 10 2 5 -8 10 -19 10 -23z m874 -7 c-6 -5 -24 21 -24 34 0 6 6 1 14
-10 8 -10 12 -21 10 -24z m1176 30 c0 -5 -4 -10 -10 -10 -5 0 -10 5 -10 10 0
6 5 10 10 10 6 0 10 -4 10 -10z m205 0 c3 -5 1 -10 -4 -10 -6 0 -11 5 -11 10
0 6 2 10 4 10 3 0 8 -4 11 -10z m125 0 c13 -9 13 -11 0 -20 -13 -8 -13 -10 0
-10 11 0 11 -3 2 -12 -14 -14 -18 -11 -27 25 -7 28 0 33 25 17z m870 6 c0 -2
-7 -6 -15 -10 -8 -3 -15 -1 -15 4 0 6 7 10 15 10 8 0 15 -2 15 -4z m1670 -11
c0 -8 -4 -15 -10 -15 -5 0 -10 7 -10 15 0 8 5 15 10 15 6 0 10 -7 10 -15z
m-5686 -6 c-3 -6 0 -15 7 -20 11 -7 10 -9 -3 -9 -11 0 -18 8 -18 20 0 11 5 20
11 20 5 0 7 -5 3 -11z m720 -5 c6 -15 4 -15 -11 -3 -10 7 -20 15 -22 16 -2 2
3 3 11 3 9 0 19 -7 22 -16z m2516 12 c0 -3 -4 -8 -10 -11 -5 -3 -10 -1 -10 4
0 6 5 11 10 11 6 0 10 -2 10 -4z m-1650 -36 c0 -16 -5 -30 -11 -30 -6 0 -8 7
-5 15 3 10 -1 18 -11 22 -15 6 -14 7 3 14 10 4 20 8 22 8 1 1 2 -12 2 -29z
m200 20 c0 -5 -5 -10 -11 -10 -5 0 -7 5 -4 10 3 6 8 10 11 10 2 0 4 -4 4 -10z
m844 -7 c4 -9 1 -11 -6 -7 -8 5 -9 2 -5 -10 5 -12 3 -16 -5 -14 -19 7 -22 45
-4 45 8 0 18 -7 20 -14z m-1994 -3 c0 -5 -7 -7 -15 -4 -8 4 -15 8 -15 10 0 2
7 4 15 4 8 0 15 -4 15 -10z m215 0 c3 -5 1 -10 -4 -10 -6 0 -11 5 -11 10 0 6
2 10 4 10 3 0 8 -4 11 -10z m2335 -10 c0 -10 -7 -25 -15 -32 -9 -7 -23 -19
-31 -27 -29 -26 -26 -2 5 31 17 18 31 36 31 41 0 4 2 7 5 7 3 0 5 -9 5 -20z
m-2040 0 c-8 -5 -19 -10 -25 -10 -5 0 -3 5 5 10 8 5 20 10 25 10 6 0 3 -5 -5
-10z m404 -40 l21 -24 -25 16 c-14 8 -26 26 -27 39 -2 14 0 18 4 9 3 -8 15
-26 27 -40z m1816 40 c0 -5 -5 -10 -11 -10 -5 0 -7 5 -4 10 3 6 8 10 11 10 2
0 4 -4 4 -10z m1583 3 c-7 -2 -19 -2 -25 0 -7 3 -2 5 12 5 14 0 19 -2 13 -5z
m-4903 -23 c0 -11 -2 -20 -4 -20 -2 0 -6 9 -9 20 -3 11 -1 20 4 20 5 0 9 -9 9
-20z m190 10 c12 -8 11 -10 -7 -10 -13 0 -23 5 -23 10 0 13 11 13 30 0z m2490
5 c0 -2 -9 -9 -20 -15 -16 -9 -18 -8 -14 5 5 13 34 22 34 10z m335 -5 c3 -5 1
-10 -4 -10 -6 0 -11 5 -11 10 0 6 2 10 4 10 3 0 8 -4 11 -10z m1985 1 c0 -13
-37 -24 -50 -16 -6 4 -8 11 -5 16 8 12 55 12 55 0z m-3031 -14 c8 -10 7 -14
-4 -14 -8 0 -15 6 -15 14 0 7 2 13 4 13 2 0 9 -6 15 -13z m216 3 c3 -6 -1 -7
-9 -4 -18 7 -21 14 -7 14 6 0 13 -4 16 -10z m342 -25 c8 -7 3 -10 -20 -12 -26
-1 -28 0 -12 7 11 5 14 9 8 9 -7 1 -13 9 -13 18 0 14 2 15 13 2 6 -8 17 -18
24 -24z m1003 31 c0 -3 -4 -8 -10 -11 -5 -3 -10 -1 -10 4 0 6 5 11 10 11 6 0
10 -2 10 -4z m-1407 -20 c4 -10 0 -12 -15 -8 -15 4 -17 7 -6 13 17 11 15 11
21 -5z m131 -58 c-4 -5 -17 -7 -29 -4 -13 3 -27 1 -30 -5 -5 -7 -14 -4 -26 7
-20 18 -26 44 -9 44 5 0 7 -7 4 -15 -4 -8 -1 -15 5 -15 11 0 15 14 11 35 -1 6
4 5 11 -2 10 -10 9 -15 -1 -28 -8 -10 -9 -15 -1 -15 6 0 11 5 11 11 0 6 7 9
15 5 8 -3 15 -1 15 4 0 6 -4 10 -9 10 -5 0 -12 8 -16 17 -4 12 5 7 24 -11 17
-16 28 -33 25 -38z m-334 48 c0 -2 -7 -9 -15 -16 -13 -11 -14 -10 -9 4 5 14
24 23 24 12z m510 -16 c0 -22 -8 -25 -30 -9 -12 9 -12 10 4 5 13 -5 17 -2 12
9 -3 8 -1 15 4 15 6 0 10 -9 10 -20z m228 -14 c0 -24 25 -60 34 -50 3 3 3 -7
0 -21 -2 -14 -8 -28 -13 -31 -5 -3 -6 2 -3 10 8 20 0 20 -20 0 -13 -12 -16
-12 -16 -2 0 8 6 20 13 27 10 10 9 15 -5 25 -14 10 -15 15 -5 26 10 10 7 11
-15 6 l-28 -6 23 23 c26 28 35 26 35 -7z m1957 24 c3 -5 2 -10 -4 -10 -5 0
-13 5 -16 10 -3 6 -2 10 4 10 5 0 13 -4 16 -10z m-4601 -19 c-10 -10 -21 -17
-23 -15 -6 6 20 34 32 34 6 0 2 -8 -9 -19z m230 -5 c-4 -9 -12 -15 -20 -12 -7
3 -15 0 -18 -7 -3 -9 -7 -9 -14 1 -11 16 -40 6 -68 -25 -22 -24 -49 -29 -74
-13 -12 7 -12 12 -2 22 9 9 12 9 12 -5 0 -10 8 -17 20 -17 11 0 20 7 20 15 0
9 6 12 17 8 13 -5 15 -2 11 15 -4 12 -2 20 3 17 5 -3 17 -1 27 4 12 6 23 6 28
1 12 -12 54 -1 54 13 0 6 2 8 5 5 3 -3 3 -13 -1 -22z m65 -1 c6 3 18 2 27 -3
11 -6 13 -11 5 -16 -6 -4 -11 -2 -11 4 0 7 -7 9 -16 6 -18 -7 -44 10 -44 28 0
6 7 3 15 -8 7 -10 18 -15 24 -11z m276 15 c-3 -5 -11 -10 -16 -10 -6 0 -7 5
-4 10 3 6 11 10 16 10 6 0 7 -4 4 -10z m1033 -15 c-3 -3 -9 2 -12 12 -6 14 -5
15 5 6 7 -7 10 -15 7 -18z m354 7 c-19 -6 -14 -22 6 -16 12 4 10 0 -6 -12 -21
-16 -22 -18 -6 -35 10 -11 14 -22 9 -27 -4 -4 -10 -1 -12 6 -3 6 -12 12 -20
12 -13 0 -14 -2 -2 -17 13 -16 12 -17 -3 -5 -13 10 -22 11 -37 2 -26 -13 -26
-15 -1 -40 25 -25 43 -26 36 -2 -5 15 -2 18 16 16 13 -1 29 -3 36 -3 8 -1 10
-6 6 -13 -5 -9 -2 -9 9 1 15 12 17 11 17 -3 0 -9 -5 -16 -11 -16 -20 0 -39
-28 -32 -47 6 -17 5 -17 -18 1 -54 44 -109 110 -98 117 8 5 6 9 -7 12 -16 4
-16 5 -2 6 9 0 20 -3 23 -9 3 -5 14 -10 23 -10 15 1 15 2 -2 15 -20 15 -20 15
0 17 34 2 39 3 52 11 7 5 10 12 7 17 -8 13 6 40 18 33 8 -5 7 -8 -1 -11z m480
-4 c-7 -7 -12 -8 -12 -2 0 14 12 26 19 19 2 -3 -1 -11 -7 -17z m3993 12 c-3
-5 -13 -10 -21 -10 -8 0 -12 5 -9 10 3 6 13 10 21 10 8 0 12 -4 9 -10z m-4312
-14 c4 -10 0 -12 -15 -8 -15 4 -17 7 -6 13 17 11 15 11 21 -5z m4195 -1 c1 -1
-48 -5 -109 -9 -61 -3 -119 -11 -129 -16 -13 -7 -21 -5 -30 5 -9 11 -4 15 32
19 84 12 221 12 236 1z m55 8 c-7 -2 -21 -2 -30 0 -10 3 -4 5 12 5 17 0 24 -2
18 -5z m-3896 -17 c0 -8 -6 -12 -14 -9 -7 3 -10 9 -7 14 8 14 21 11 21 -5z
m215 -18 c-7 -7 -12 -8 -12 -2 0 14 12 26 19 19 2 -3 -1 -11 -7 -17z m198 7
c8 -9 8 -15 2 -15 -6 0 -19 -3 -29 -6 -14 -4 -15 -4 -4 4 7 5 10 15 7 21 -11
17 10 13 24 -4z m-2870 -5 c0 -5 -4 -10 -10 -10 -5 0 -10 5 -10 10 0 6 5 10
10 10 6 0 10 -4 10 -10z m2747 -12 c-3 -8 -6 -5 -6 6 -1 11 2 17 5 13 3 -3 4
-12 1 -19z m-1827 4 c0 -5 -12 -14 -26 -20 -14 -7 -23 -8 -20 -3 4 5 0 12 -6
15 -7 3 -3 3 9 1 12 -3 24 -1 28 5 8 12 15 13 15 2z m784 -7 c-4 -8 -10 -12
-15 -9 -11 6 -2 24 11 24 5 0 7 -7 4 -15z m260 0 c-4 -8 -11 -12 -16 -9 -6 4
-5 10 3 15 19 12 19 11 13 -6z m4005 6 c20 -13 2 -34 -25 -28 -16 3 -24 0 -24
-9 0 -8 -7 -14 -15 -14 -8 0 -15 -4 -15 -9 0 -9 -131 -33 -139 -26 -2 3 4 14
14 25 10 11 20 18 23 15 3 -2 14 1 26 8 23 13 115 45 131 46 6 0 16 -3 24 -8z
m-5659 -10 c0 -5 -9 -11 -21 -14 -16 -4 -18 -3 -8 9 13 16 29 19 29 5z m2420
-3 c0 -4 -4 -8 -9 -8 -6 0 -12 4 -15 8 -3 5 1 9 9 9 8 0 15 -4 15 -9z m-200
-8 c0 -5 -5 -10 -11 -10 -5 0 -7 5 -4 10 3 6 8 10 11 10 2 0 4 -4 4 -10z m90
0 c0 -5 -5 -10 -11 -10 -5 0 -7 5 -4 10 3 6 8 10 11 10 2 0 4 -4 4 -10z m80
-4 c0 -3 -4 -8 -10 -11 -5 -3 -10 -1 -10 4 0 6 5 11 10 11 6 0 10 -2 10 -4z
m25 -31 c-33 -26 -45 -31 -45 -15 0 6 7 10 15 10 8 0 14 3 14 8 -3 17 2 22 24
22 21 0 20 -1 -8 -25z m1285 15 c0 -5 -2 -10 -4 -10 -3 0 -8 5 -11 10 -3 6 -1
10 4 10 6 0 11 -4 11 -10z m-3722 -17 c-2 -10 -12 -19 -23 -21 -18 -3 -19 -2
-2 8 9 6 15 15 12 21 -4 5 -1 9 5 9 6 0 10 -8 8 -17z m272 7 c0 -5 -5 -10 -11
-10 -5 0 -7 5 -4 10 3 6 8 10 11 10 2 0 4 -4 4 -10z m4440 1 c0 -4 16 -7 35
-5 38 3 46 -9 16 -26 -22 -11 -66 -8 -66 6 0 5 -4 15 -8 22 -5 8 -3 12 7 12 9
0 16 -4 16 -9z m-2120 -17 c0 -8 -5 -12 -10 -9 -6 4 -8 11 -5 16 9 14 15 11
15 -7z m3099 -31 c-36 -15 -108 -18 -93 -4 5 5 25 11 44 13 21 2 34 8 33 15
-2 10 3 10 22 1 l26 -12 -32 -13z m-5229 7 c-8 -5 -22 -10 -30 -10 -13 0 -13
1 0 10 8 5 22 10 30 10 13 0 13 -1 0 -10z m400 -9 c-5 -11 -15 -23 -21 -27 -6
-3 -3 5 6 20 20 30 30 35 15 7z m1520 9 c0 -5 -4 -10 -10 -10 -5 0 -10 -6 -10
-14 0 -8 -7 -17 -16 -20 -23 -9 -34 -7 -34 5 0 5 5 7 10 4 6 -3 10 -2 10 3 0
6 -7 12 -15 16 -8 3 -15 1 -15 -4 0 -6 -4 -10 -10 -10 -5 0 -10 7 -10 15 0 12
9 15 35 12 20 -3 38 0 41 4 7 12 24 11 24 -1z m470 0 c13 -8 13 -10 -2 -10 -9
0 -20 5 -23 10 -8 13 5 13 25 0z m-2828 -48 c7 3 18 -2 24 -11 10 -12 17 -13
37 -4 22 10 24 10 20 -8 -4 -14 0 -19 16 -19 11 0 21 5 21 11 0 5 5 7 12 3 21
-13 -29 -29 -55 -17 -35 18 -61 26 -79 28 -22 3 -46 22 -60 49 -8 16 -4 15 20
-8 17 -15 36 -26 44 -24z m798 33 c-7 -8 -9 -23 -4 -37 7 -23 6 -23 -15 -4
-25 22 -27 36 -6 36 8 0 15 5 15 10 0 6 5 10 11 10 8 0 8 -4 -1 -15z m4153 8
c-7 -2 -19 -2 -25 0 -7 3 -2 5 12 5 14 0 19 -2 13 -5z m-3820 -10 c-7 -2 -19
-2 -25 0 -7 3 -2 5 12 5 14 0 19 -2 13 -5z m1342 -11 c-3 -3 -11 0 -18 7 -9
10 -8 11 6 5 10 -3 15 -9 12 -12z m1526 -4 c9 -4 22 -1 28 5 8 8 11 8 11 0 0
-15 -21 -22 -45 -13 -13 5 -25 0 -37 -14 -10 -12 -17 -15 -18 -8 0 6 4 12 9
12 5 0 13 10 16 21 4 12 10 17 14 12 3 -5 13 -12 22 -15z m-3441 2 c0 -5 -2
-10 -4 -10 -3 0 -8 5 -11 10 -3 6 -1 10 4 10 6 0 11 -4 11 -10z m310 0 c-8 -5
-19 -10 -25 -10 -5 0 -3 5 5 10 8 5 20 10 25 10 6 0 3 -5 -5 -10z m600 -10 c0
-5 -2 -10 -4 -10 -3 0 -8 5 -11 10 -3 6 -1 10 4 10 6 0 11 -4 11 -10z m970 6
c0 -2 -7 -7 -16 -10 -8 -3 -12 -2 -9 4 6 10 25 14 25 6z m541 -15 c-8 -5 -10
-14 -6 -21 5 -9 4 -11 -3 -6 -18 11 -14 36 6 36 13 0 14 -2 3 -9z m-2117 -22
c12 10 14 9 9 -8 -6 -24 -8 -25 -34 -11 -10 6 -19 18 -19 28 1 15 2 15 15 -2
12 -15 17 -17 29 -7z m109 6 c4 -8 1 -17 -5 -21 -7 -4 -8 -3 -4 4 4 7 2 12 -3
12 -6 0 -11 5 -11 10 0 15 17 12 23 -5z m699 -17 c-2 -10 1 -18 7 -18 6 0 11
-4 11 -10 0 -21 -18 -9 -28 18 -7 22 -7 29 3 29 7 0 10 -8 7 -19z m1901 8 c4
-10 1 -13 -9 -9 -7 3 -14 9 -14 14 0 14 17 10 23 -5z m40 -16 c3 -11 2 -18 -3
-15 -4 3 -10 14 -13 25 -3 11 -2 18 3 15 4 -3 10 -14 13 -25z m162 20 c8 -13
-5 -13 -25 0 -13 8 -13 10 2 10 9 0 20 -4 23 -10z m1068 3 c-7 -2 -19 -2 -25
0 -7 3 -2 5 12 5 14 0 19 -2 13 -5z m-4659 -17 c-21 -15 -30 -14 -19 3 3 6 14
11 23 11 13 0 13 -2 -4 -14z m156 -1 c-7 -9 -15 -13 -17 -11 -7 7 7 26 19 26
6 0 6 -6 -2 -15z m50 11 c0 -2 -8 -10 -17 -17 -16 -13 -17 -12 -4 4 13 16 21
21 21 13z m177 -7 c-14 -8 -16 -14 -7 -24 7 -8 8 -20 4 -26 -5 -9 -10 -5 -16
11 -9 24 5 50 26 50 6 0 3 -5 -7 -11z m123 1 c0 -5 -2 -10 -4 -10 -3 0 -8 5
-11 10 -3 6 -1 10 4 10 6 0 11 -4 11 -10z m1987 -12 c-3 -8 -6 -5 -6 6 -1 11
2 17 5 13 3 -3 4 -12 1 -19z m633 12 c0 -5 -4 -10 -10 -10 -5 0 -10 5 -10 10
0 6 5 10 10 10 6 0 10 -4 10 -10z m-2870 -4 c0 -3 -4 -8 -10 -11 -5 -3 -10 -1
-10 4 0 6 5 11 10 11 6 0 10 -2 10 -4z m197 -18 c-3 -8 -6 -5 -6 6 -1 11 2 17
5 13 3 -3 4 -12 1 -19z m2757 8 c-6 -16 12 -31 20 -17 3 5 15 7 26 4 11 -3 34
0 52 6 l33 11 -24 -19 c-14 -11 -35 -17 -53 -15 -17 2 -27 0 -23 -6 4 -6 -2
-7 -18 -1 -14 6 -28 7 -31 4 -3 -4 -6 3 -6 14 0 21 8 33 21 33 5 0 6 -6 3 -14z
m256 5 c0 -5 3 -18 6 -28 5 -16 4 -16 -10 1 -18 23 -20 36 -6 36 6 0 10 -4 10
-9z m-3440 -11 c0 -16 -34 -27 -60 -19 -25 9 -25 9 2 5 16 -2 33 3 39 10 13
16 19 18 19 4z m2060 6 c0 -3 -4 -8 -10 -11 -5 -3 -10 -1 -10 4 0 6 5 11 10
11 6 0 10 -2 10 -4z m1290 -17 c0 -4 -7 -6 -15 -3 -8 4 -15 10 -15 15 0 4 7 6
15 3 8 -4 15 -10 15 -15z m-2766 -13 c17 -13 50 -27 73 -31 32 -5 40 -10 36
-22 -5 -12 -1 -14 17 -8 15 5 20 4 16 -4 -4 -6 -1 -11 8 -11 8 0 17 6 19 13 4
8 6 7 6 -3 1 -11 12 -15 41 -15 22 0 40 -3 40 -7 0 -5 -7 -8 -15 -8 -8 0 -15
-4 -15 -9 0 -5 -7 -11 -14 -14 -10 -4 -13 -1 -9 9 6 16 -22 20 -32 4 -5 -8
-11 -7 -20 0 -18 15 -31 6 -38 -25 -3 -20 -1 -25 10 -21 10 4 13 1 9 -12 -5
-16 -2 -18 24 -14 18 2 30 10 30 19 0 12 3 12 16 -2 12 -12 20 -13 28 -5 8 8
7 13 -4 20 -8 5 -12 10 -8 10 3 0 14 3 24 7 11 4 15 3 10 -5 -3 -6 -2 -13 4
-17 5 -3 10 -1 10 4 0 19 36 48 58 46 13 -1 29 -10 37 -21 10 -12 17 -15 22
-8 9 12 53 14 53 2 0 -4 -4 -8 -10 -8 -5 0 -10 -4 -10 -10 0 -5 15 -10 34 -10
19 0 38 -5 41 -11 4 -6 0 -9 -11 -7 -15 2 -20 -4 -22 -29 l-3 -33 -481 0
c-265 0 -479 2 -476 5 2 3 82 5 177 6 141 1 169 3 155 13 -15 12 -15 13 0 19
9 4 16 14 16 23 0 12 7 15 25 12 14 -3 25 -1 25 4 0 5 7 16 15 24 18 19 20 38
3 28 -7 -4 -10 -3 -5 1 11 13 49 17 42 5 -9 -14 9 -12 24 3 10 10 11 9 6 -5
-4 -10 -3 -18 3 -18 6 0 14 9 17 20 5 15 14 19 39 17 24 -1 32 -6 28 -16 -3
-9 -1 -12 6 -7 6 3 16 -2 22 -11 10 -15 11 -15 6 -1 -3 10 2 19 12 23 15 6 14
8 -6 19 -12 7 -19 15 -16 19 4 4 -5 7 -20 7 -15 0 -41 9 -57 21 -16 11 -30 17
-31 12 0 -4 -2 -15 -2 -23 -1 -8 -7 -14 -14 -12 -7 1 -15 -5 -18 -13 -9 -23
-23 -18 -17 6 5 19 3 21 -20 15 -29 -7 -46 10 -27 27 10 9 12 8 7 -5 -8 -22 1
-23 25 -1 17 15 18 15 18 0 0 -24 27 -21 35 4 5 14 2 25 -6 30 -8 5 -10 9 -5
9 5 0 23 -11 40 -24z m-1801 7 c-13 -2 -33 -2 -45 0 -13 2 -3 4 22 4 25 0 35
-2 23 -4z m95 -30 c2 -24 8 -33 21 -33 23 0 32 -10 24 -24 -4 -6 -6 -26 -4
-46 1 -24 -4 -42 -19 -57 -18 -20 -28 -22 -78 -18 -125 11 -143 12 -148 4 -3
-5 -15 2 -28 16 -16 17 -22 33 -18 51 4 22 1 26 -19 24 -44 -4 -49 0 -49 31 0
23 4 30 18 28 33 -3 42 1 42 20 0 29 80 38 100 11 3 -4 35 -9 72 -12 l66 -6
-26 24 -27 24 35 -2 c32 -3 35 -6 38 -35z m1167 9 c-6 -7 -34 11 -29 19 3 5
11 3 19 -4 7 -6 12 -13 10 -15z m401 11 c-4 -5 -12 -8 -16 -8 -5 0 -16 -9 -25
-20 -14 -19 -15 -18 -4 8 8 16 20 27 32 27 11 0 17 -3 13 -7z m1564 -33 c0 -5
-2 -10 -4 -10 -3 0 -8 5 -11 10 -3 6 -1 10 4 10 6 0 11 -4 11 -10z m215 -40
c-3 -5 -11 -10 -16 -10 -6 0 -7 5 -4 10 3 6 11 10 16 10 6 0 7 -4 4 -10z m25
-11 c-7 -11 -14 -18 -17 -15 -3 3 0 12 7 21 18 21 23 19 10 -6z m-2320 -9 c3
-4 15 -10 28 -14 12 -4 22 -14 22 -23 0 -9 6 -13 15 -9 10 4 17 -4 23 -27 5
-18 5 -34 0 -35 -16 -7 4 -22 29 -22 15 0 24 -2 22 -4 -2 -3 -164 -7 -359 -9
-228 -3 -300 -2 -200 3 85 4 213 8 284 9 71 0 127 4 124 7 -4 3 -58 5 -122 5
l-116 -1 0 25 c0 20 -5 25 -25 25 -14 0 -25 5 -25 10 0 6 11 10 25 10 14 0 25
6 25 13 0 21 43 42 100 47 65 6 143 1 150 -10z m1366 7 c12 16 13 16 14 2 0
-21 -31 -34 -42 -17 -4 7 -8 18 -8 23 1 6 5 2 11 -8 10 -18 11 -18 25 0z
m1067 -2 c4 -8 2 -17 -2 -20 -5 -2 -11 4 -14 15 -6 23 8 27 16 5z m-1196 -15
c-1 -22 -17 -28 -17 -7 0 12 9 27 16 27 2 0 2 -9 1 -20z m3876 13 c-7 -2 -19
-2 -25 0 -7 3 -2 5 12 5 14 0 19 -2 13 -5z m-2773 -27 c0 -15 -21 -26 -47 -26
-12 0 -10 5 7 20 27 23 40 25 40 6z m26 -23 c-11 -11 -17 4 -9 23 7 18 8 18
11 1 2 -10 1 -21 -2 -24z m124 17 c0 -5 -2 -10 -4 -10 -3 0 -8 5 -11 10 -3 6
-1 10 4 10 6 0 11 -4 11 -10z m-1190 -22 c0 -16 -3 -19 -11 -11 -6 6 -8 16 -5
22 11 17 16 13 16 -11z m1130 12 c0 -5 -2 -10 -4 -10 -3 0 -8 5 -11 10 -3 6
-1 10 4 10 6 0 11 -4 11 -10z m-2703 -56 c-3 -3 -12 -4 -19 -1 -8 3 -5 6 6 6
11 1 17 -2 13 -5z m-789 -31 c-10 -2 -28 -2 -40 0 -13 2 -5 4 17 4 22 1 32 -1
23 -4z m-560 -20 c-16 -2 -40 -2 -55 0 -16 2 -3 4 27 4 30 0 43 -2 28 -4z
m620 0 c-98 -2 -258 -2 -355 0 -98 1 -18 2 177 2 195 0 275 -1 178 -2z m5170
-20 c-10 -2 -26 -2 -35 0 -10 3 -2 5 17 5 19 0 27 -2 18 -5z m240 0 c-32 -2
-86 -2 -120 0 -35 2 -9 3 57 3 66 0 94 -1 63 -3z m-3031 -269 c-3 -3 -12 -4
-19 -1 -8 3 -5 6 6 6 11 1 17 -2 13 -5z m351 -21 c-3 -24 -8 -28 -38 -29 -19
-1 -57 -5 -85 -8 -36 -4 -46 -3 -35 4 11 8 4 9 -24 4 -28 -5 -37 -4 -32 5 5 7
42 11 101 11 52 0 96 4 99 8 2 4 -68 7 -157 6 l-162 -2 140 12 c212 20 197 20
193 -11z m608 2 c-11 -8 -22 -12 -25 -9 -6 6 19 24 34 24 6 -1 1 -7 -9 -15z
m-66 -15 c0 -5 -10 -10 -22 -9 -22 0 -22 1 -3 9 11 5 21 9 23 9 1 1 2 -3 2 -9z
m-877 -7 c-7 -2 -19 -2 -25 0 -7 3 -2 5 12 5 14 0 19 -2 13 -5z m1027 -13 c0
-5 -5 -10 -11 -10 -5 0 -7 5 -4 10 3 6 8 10 11 10 2 0 4 -4 4 -10z m40 0 c0
-5 -8 -10 -17 -10 -15 0 -16 2 -3 10 19 12 20 12 20 0z m-83 -7 c-3 -3 -22 -5
-42 -5 -20 0 -39 2 -41 5 -3 3 15 5 41 5 26 0 44 -2 42 -5z m156 0 c-7 -2 -21
-2 -30 0 -10 3 -4 5 12 5 17 0 24 -2 18 -5z m-1100 -10 c-7 -2 -21 -2 -30 0
-10 3 -4 5 12 5 17 0 24 -2 18 -5z m174 -4 c65 9 109 8 120 -2 3 -4 -18 -7
-48 -8 -106 -2 -160 -9 -175 -24 -18 -17 -34 -20 -34 -5 0 6 7 10 15 10 8 0
15 9 15 20 0 16 4 18 24 10 13 -5 50 -5 83 -1z m562 -9 c-6 -5 -19 -6 -27 -2
-13 4 -12 7 4 12 23 9 41 1 23 -10z m48 14 c-3 -3 -12 -4 -19 -1 -8 3 -5 6 6
6 11 1 17 -2 13 -5z m-2194 -11 c-7 -2 -21 -2 -30 0 -10 3 -4 5 12 5 17 0 24
-2 18 -5z m1927 0 c-8 -3 -18 -11 -22 -17 -5 -7 -8 -4 -8 7 0 11 7 17 23 16
15 0 17 -2 7 -6z m-545 -19 c-29 -7 -85 -9 -85 -3 0 9 70 17 85 10 6 -3 6 -6
0 -7z m72 10 c-3 -3 -12 -4 -19 -1 -8 3 -5 6 6 6 11 1 17 -2 13 -5z m564 -4
c19 -11 26 -44 10 -54 -4 -3 -6 5 -4 18 6 29 -21 41 -70 31 -24 -5 -28 -4 -17
4 19 14 56 14 81 1z m64 -10 c-16 -18 -16 -20 -2 -20 10 0 17 5 17 10 0 6 5
10 11 10 5 0 7 -5 3 -11 -4 -8 0 -9 15 -4 11 3 21 3 21 -2 0 -5 -11 -10 -25
-11 -38 -3 -49 -6 -57 -17 -4 -5 -8 1 -8 16 0 25 16 49 34 49 5 0 1 -9 -9 -20z
m368 8 c-2 -5 -21 -8 -41 -8 -27 0 -33 3 -22 10 17 10 70 9 63 -2z m120 5
c-18 -2 -48 -2 -65 0 -18 2 -4 4 32 4 36 0 50 -2 33 -4z m-946 -33 c9 0 13 6
10 14 -5 12 2 13 31 9 64 -10 59 -17 -15 -27 -51 -6 -53 -6 -52 16 1 17 3 18
6 6 2 -10 11 -18 20 -18z m2046 23 c-7 -2 -19 -2 -25 0 -7 3 -2 5 12 5 14 0
19 -2 13 -5z m-2239 -13 c-6 -6 -31 -11 -57 -13 -56 -3 -49 10 8 16 22 2 44 4
50 5 5 1 5 -2 -1 -8z m141 1 l-20 -8 20 -5 c14 -4 10 -6 -12 -7 -17 0 -34 3
-38 8 -6 10 16 18 50 19 l20 1 -20 -8z m675 -7 c0 -2 -9 -4 -20 -4 -11 0 -20
4 -20 9 0 5 9 7 20 4 11 -3 20 -7 20 -9z m105 6 c-11 -5 -29 -9 -40 -9 -17 -1
-17 1 -5 9 8 5 26 9 40 9 23 0 23 -1 5 -9z m-829 -34 c8 -8 11 -17 6 -20 -4
-2 -13 4 -20 15 -14 22 -7 25 14 5z m181 -2 c-9 -9 -154 -18 -145 -9 6 7 140
23 147 18 2 -2 1 -6 -2 -9z m738 6 c-3 -5 -18 -9 -33 -9 l-27 1 30 8 c17 4 31
8 33 9 2 0 0 -3 -3 -9z m50 0 c3 -5 1 -10 -4 -10 -6 0 -11 5 -11 10 0 6 2 10
4 10 3 0 8 -4 11 -10z m55 0 c12 -8 9 -10 -13 -10 -16 0 -26 4 -22 10 8 12 16
12 35 0z m-1443 -6 c-3 -3 -12 -4 -19 -1 -8 3 -5 6 6 6 11 1 17 -2 13 -5z
m863 -4 c-8 -5 -19 -10 -25 -10 -5 0 -3 5 5 10 8 5 20 10 25 10 6 0 3 -5 -5
-10z m394 2 c5 -8 -100 -10 -108 -1 -3 3 19 6 49 7 30 1 56 -2 59 -6z m693 2
c-3 -3 -12 -4 -19 -1 -8 3 -5 6 6 6 11 1 17 -2 13 -5z m-920 -20 c-4 -4 -29
-9 -57 -12 -27 -2 -47 -8 -44 -13 9 -15 -13 -10 -26 6 -11 13 -7 15 26 16 22
1 53 4 69 8 31 8 43 5 32 -5z m88 6 c-26 -11 -65 -12 -65 -2 0 4 19 8 43 9 31
1 37 -1 22 -7z m-1078 -6 c-3 -3 -12 -4 -19 -1 -8 3 -5 6 6 6 11 1 17 -2 13
-5z m363 -4 c0 -5 -4 -10 -10 -10 -5 0 -10 5 -10 10 0 6 5 10 10 10 6 0 10 -4
10 -10z m990 0 c0 -5 -2 -10 -4 -10 -3 0 -8 5 -11 10 -3 6 -1 10 4 10 6 0 11
-4 11 -10z m-1115 -10 c-27 -12 -35 -12 -35 0 0 6 12 10 28 9 24 0 25 -1 7 -9z
m83 3 c-10 -2 -26 -2 -35 0 -10 3 -2 5 17 5 19 0 27 -2 18 -5z m132 -3 c0 -5
-10 -10 -22 -9 -22 0 -22 1 -3 9 11 5 21 9 23 9 1 1 2 -3 2 -9z m1017 4 c-3
-3 -12 -4 -19 -1 -8 3 -5 6 6 6 11 1 17 -2 13 -5z m-1290 -10 c-3 -3 -12 -4
-19 -1 -8 3 -5 6 6 6 11 1 17 -2 13 -5z m585 -1 c-6 -2 -10 -9 -6 -14 3 -5 0
-9 -5 -9 -6 0 -11 7 -11 15 0 8 8 15 18 14 10 0 12 -3 4 -6z m83 -5 c3 -3 -10
-9 -31 -12 -20 -4 -39 -5 -42 -2 -3 3 2 6 11 6 10 0 17 4 17 8 0 9 36 9 45 0z
m475 2 c0 -5 -7 -10 -15 -10 -8 0 -15 5 -15 10 0 6 7 10 15 10 8 0 15 -4 15
-10z m-1343 -6 c-3 -3 -12 -4 -19 -1 -8 3 -5 6 6 6 11 1 17 -2 13 -5z m971 -1
c-10 -2 -26 -2 -35 0 -10 3 -2 5 17 5 19 0 27 -2 18 -5z m312 -3 c-20 -13 -33
-13 -25 0 3 6 14 10 23 10 15 0 15 -2 2 -10z m-877 -7 c3 -5 -16 -9 -41 -11
-34 -2 -43 0 -32 8 18 11 67 13 73 3z m65 0 c-10 -2 -26 -2 -35 0 -10 3 -2 5
17 5 19 0 27 -2 18 -5z m89 1 c-3 -3 -12 -4 -19 -1 -8 3 -5 6 6 6 11 1 17 -2
13 -5z m673 -4 c0 -6 -31 -9 -77 -8 l-78 2 75 6 c41 4 76 7 78 8 1 1 2 -2 2
-8z m1238 -7 c-10 -2 -26 -2 -35 0 -10 3 -2 5 17 5 19 0 27 -2 18 -5z m-1888
-20 c0 -12 -3 -14 -8 -6 -4 6 -21 13 -37 16 -27 4 -27 4 8 6 29 1 37 -3 37
-16z m387 3 c4 -5 -22 -6 -59 -3 -37 2 -66 2 -64 -2 2 -3 -16 -6 -40 -6 -24 0
-44 5 -44 10 0 12 196 13 207 1z m-522 -6 c-3 -5 -11 -10 -16 -10 -6 0 -7 5
-4 10 3 6 11 10 16 10 6 0 7 -4 4 -10z m572 4 c-3 -3 -12 -4 -19 -1 -8 3 -5 6
6 6 11 1 17 -2 13 -5z m-717 -14 c8 -5 11 -10 5 -10 -5 0 -17 5 -25 10 -8 5
-10 10 -5 10 6 0 17 -5 25 -10z m70 -2 c0 -5 -11 -8 -25 -8 -14 0 -25 3 -25 8
0 4 11 7 25 7 14 0 25 -3 25 -7z m40 2 c0 -5 -7 -7 -15 -4 -8 4 -15 8 -15 10
0 2 7 4 15 4 8 0 15 -4 15 -10z m-272 -7 c-10 -2 -26 -2 -35 0 -10 3 -2 5 17
5 19 0 27 -2 18 -5z m877 -19 c-26 -6 -105 -11 -100 -6 8 8 88 19 100 13 6 -3
6 -6 0 -7z m370 6 c-3 -5 -30 -9 -58 -8 l-52 1 55 7 c30 4 56 7 58 8 2 1 0 -2
-3 -8z m-2418 -6 c-3 -3 -12 -4 -19 -1 -8 3 -5 6 6 6 11 1 17 -2 13 -5z m238
-12 c-3 -3 -11 0 -18 7 -9 10 -8 11 6 5 10 -3 15 -9 12 -12z m192 12 c-3 -3
-12 -4 -19 -1 -8 3 -5 6 6 6 11 1 17 -2 13 -5z m1831 -1 c-10 -2 -26 -2 -35 0
-10 3 -2 5 17 5 19 0 27 -2 18 -5z m640 0 c-10 -2 -28 -2 -40 0 -13 2 -5 4 17
4 22 1 32 -1 23 -4z m-1041 -9 c-3 -3 -12 -4 -19 -1 -8 3 -5 6 6 6 11 1 17 -2
13 -5z m1390 0 c-3 -3 -12 -4 -19 -1 -8 3 -5 6 6 6 11 1 17 -2 13 -5z m-1184
-11 c-7 -2 -19 -2 -25 0 -7 3 -2 5 12 5 14 0 19 -2 13 -5z m-718 -13 c-3 -5
-12 -10 -18 -10 -7 0 -6 4 3 10 19 12 23 12 15 0z m85 0 c0 -5 -2 -10 -4 -10
-3 0 -8 5 -11 10 -3 6 -1 10 4 10 6 0 11 -4 11 -10z m-192 -7 c-10 -2 -26 -2
-35 0 -10 3 -2 5 17 5 19 0 27 -2 18 -5z m949 1 c-3 -3 -12 -4 -19 -1 -8 3 -5
6 6 6 11 1 17 -2 13 -5z m-58 -8 c-11 -9 -130 -15 -124 -6 3 6 34 10 67 10 34
0 59 -2 57 -4z m148 -7 c-9 -6 -50 -12 -90 -14 l-72 -4 74 9 c41 6 76 12 79
15 3 3 10 5 16 5 6 0 3 -5 -7 -11z m386 4 c-7 -2 -19 -2 -25 0 -7 3 -2 5 12 5
14 0 19 -2 13 -5z m184 1 c-3 -3 -12 -4 -19 -1 -8 3 -5 6 6 6 11 1 17 -2 13
-5z m-122 -24 c-3 -5 -14 -10 -23 -9 -14 0 -13 2 3 9 27 11 27 11 20 0z
m-3382 -7 c-7 -2 -19 -2 -25 0 -7 3 -2 5 12 5 14 0 19 -2 13 -5z m3564 1 c-3
-3 -12 -4 -19 -1 -8 3 -5 6 6 6 11 1 17 -2 13 -5z m-2940 -20 c-3 -3 -12 -4
-19 -1 -8 3 -5 6 6 6 11 1 17 -2 13 -5z m1593 -4 c-8 -5 -19 -10 -25 -10 -5 0
-3 5 5 10 8 5 20 10 25 10 6 0 3 -5 -5 -10z m-1357 -7 c-7 -2 -21 -2 -30 0
-10 3 -4 5 12 5 17 0 24 -2 18 -5z m3744 1 c-3 -3 -12 -4 -19 -1 -8 3 -5 6 6
6 11 1 17 -2 13 -5z m-1459 -11 c-10 -2 -26 -2 -35 0 -10 3 -2 5 17 5 19 0 27
-2 18 -5z m185 0 c-7 -2 -19 -2 -25 0 -7 3 -2 5 12 5 14 0 19 -2 13 -5z m320
0 c-7 -2 -21 -2 -30 0 -10 3 -4 5 12 5 17 0 24 -2 18 -5z m194 1 c-3 -3 -12
-4 -19 -1 -8 3 -5 6 6 6 11 1 17 -2 13 -5z m-3022 -14 c13 -6 15 -9 5 -9 -8 0
-22 4 -30 9 -18 12 -2 12 25 0z m205 1 c42 -8 43 -9 10 -9 -19 -1 -53 3 -75 7
-35 8 -36 9 -10 9 17 0 50 -3 75 -7z m163 2 c-7 -2 -19 -2 -25 0 -7 3 -2 5 12
5 14 0 19 -2 13 -5z m2084 1 c-3 -3 -12 -4 -19 -1 -8 3 -5 6 6 6 11 1 17 -2
13 -5z m316 -1 c-7 -2 -21 -2 -30 0 -10 3 -4 5 12 5 17 0 24 -2 18 -5z m200 0
c-13 -2 -33 -2 -45 0 -13 2 -3 4 22 4 25 0 35 -2 23 -4z m290 -10 c-7 -2 -19
-2 -25 0 -7 3 -2 5 12 5 14 0 19 -2 13 -5z m170 0 c-7 -2 -19 -2 -25 0 -7 3
-2 5 12 5 14 0 19 -2 13 -5z m-3700 -10 c-13 -2 -33 -2 -45 0 -13 2 -3 4 22 4
25 0 35 -2 23 -4z m180 0 c-13 -2 -33 -2 -45 0 -13 2 -3 4 22 4 25 0 35 -2 23
-4z m3002 -13 c-3 -5 -12 -10 -18 -10 -7 0 -6 4 3 10 19 12 23 12 15 0z m73 3
c-10 -2 -26 -2 -35 0 -10 3 -2 5 17 5 19 0 27 -2 18 -5z m-2795 -10 c-7 -2
-21 -2 -30 0 -10 3 -4 5 12 5 17 0 24 -2 18 -5z m52 -11 c-3 -3 -11 0 -18 7
-9 10 -8 11 6 5 10 -3 15 -9 12 -12z m2282 12 c-3 -3 -12 -4 -19 -1 -8 3 -5 6
6 6 11 1 17 -2 13 -5z m191 -1 c-10 -2 -28 -2 -40 0 -13 2 -5 4 17 4 22 1 32
-1 23 -4z m-365 -20 c-7 -2 -19 -2 -25 0 -7 3 -2 5 12 5 14 0 19 -2 13 -5z
m924 1 c-3 -3 -12 -4 -19 -1 -8 3 -5 6 6 6 11 1 17 -2 13 -5z m240 0 c-3 -3
-12 -4 -19 -1 -8 3 -5 6 6 6 11 1 17 -2 13 -5z m-3640 -10 c-3 -3 -12 -4 -19
-1 -8 3 -5 6 6 6 11 1 17 -2 13 -5z m-214 -11 c-7 -2 -21 -2 -30 0 -10 3 -4 5
12 5 17 0 24 -2 18 -5z m2714 -9 c-3 -3 -12 -4 -19 -1 -8 3 -5 6 6 6 11 1 17
-2 13 -5z m946 -1 c-7 -2 -21 -2 -30 0 -10 3 -4 5 12 5 17 0 24 -2 18 -5z
m180 0 c-13 -2 -35 -2 -50 0 -16 2 -5 4 22 4 28 0 40 -2 28 -4z m-3838 -13
c14 -7 8 -8 -20 -3 -22 3 -42 7 -44 9 -9 8 45 2 64 -6z m122 4 c-3 -3 -12 -4
-19 -1 -8 3 -5 6 6 6 11 1 17 -2 13 -5z m500 -10 c-3 -3 -12 -4 -19 -1 -8 3
-5 6 6 6 11 1 17 -2 13 -5z m2186 -1 c-13 -2 -35 -2 -50 0 -16 2 -5 4 22 4 28
0 40 -2 28 -4z m647 3 c0 -2 -11 -6 -25 -8 -13 -3 -22 -1 -19 3 5 9 44 13 44
5z m177 -12 c-3 -3 -12 -4 -19 -1 -8 3 -5 6 6 6 11 1 17 -2 13 -5z m-3510 -10
c-3 -3 -12 -4 -19 -1 -8 3 -5 6 6 6 11 1 17 -2 13 -5z m276 -1 c-7 -2 -19 -2
-25 0 -7 3 -2 5 12 5 14 0 19 -2 13 -5z m87 -13 c0 -5 -5 -10 -11 -10 -5 0 -7
5 -4 10 3 6 8 10 11 10 2 0 4 -4 4 -10z m2677 4 c-3 -3 -12 -4 -19 -1 -8 3 -5
6 6 6 11 1 17 -2 13 -5z m94 -69 c-39 -18 -41 -18 -41 -6 0 5 10 12 23 14 45
9 51 6 18 -8z m-2706 -15 c3 -5 1 -10 -4 -10 -6 0 -11 5 -11 10 0 6 2 10 4 10
3 0 8 -4 11 -10z m2652 4 c-3 -3 -12 -4 -19 -1 -8 3 -5 6 6 6 11 1 17 -2 13
-5z m-2610 -20 c-3 -3 -12 -4 -19 -1 -8 3 -5 6 6 6 11 1 17 -2 13 -5z m38 -4
c3 -6 -1 -7 -9 -4 -18 7 -21 14 -7 14 6 0 13 -4 16 -10z m-18 -26 c-3 -3 -12
-4 -19 -1 -8 3 -5 6 6 6 11 1 17 -2 13 -5z m-954 -51 c-7 -2 -19 -2 -25 0 -7
3 -2 5 12 5 14 0 19 -2 13 -5z m624 -59 c-3 -3 -12 -4 -19 -1 -8 3 -5 6 6 6
11 1 17 -2 13 -5z m50 -10 c-3 -3 -12 -4 -19 -1 -8 3 -5 6 6 6 11 1 17 -2 13
-5z"/>
<path d="M9814 3379 l-19 -21 40 7 c47 9 49 10 40 24 -10 18 -40 13 -61 -10z"/>
<path d="M9658 3283 c7 -3 16 -2 19 1 4 3 -2 6 -13 5 -11 0 -14 -3 -6 -6z"/>
<path d="M9570 3240 c0 -5 7 -10 15 -10 8 0 15 5 15 10 0 6 -7 10 -15 10 -8 0
-15 -4 -15 -10z"/>
<path d="M9600 3130 c0 -5 5 -10 10 -10 6 0 10 5 10 10 0 6 -4 10 -10 10 -5 0
-10 -4 -10 -10z"/>
<path d="M9620 2980 c-21 -7 -21 -8 -5 -9 11 0 27 4 35 9 18 11 5 11 -30 0z"/>
<path d="M6513 2973 c18 -5 23 -18 10 -26 -5 -2 -3 -2 4 -1 6 2 14 -2 17 -9 3
-7 5 -6 5 4 1 20 -19 39 -38 38 -12 -1 -12 -2 2 -6z"/>
<path d="M6186 2932 c-3 -5 1 -15 9 -22 16 -14 20 -3 6 19 -5 8 -11 9 -15 3z"/>
<path d="M6594 2923 c-3 -10 -10 -27 -16 -38 -9 -18 -9 -19 6 -4 9 8 18 25 21
37 5 26 -3 29 -11 5z"/>
<path d="M6560 2920 c0 -5 5 -10 11 -10 5 0 7 5 4 10 -3 6 -8 10 -11 10 -2 0
-4 -4 -4 -10z"/>
<path d="M6549 2883 c-13 -16 -12 -17 4 -4 9 7 17 15 17 17 0 8 -8 3 -21 -13z"/>
<path d="M6195 2870 c3 -5 11 -10 16 -10 6 0 7 5 4 10 -3 6 -11 10 -16 10 -6
0 -7 -4 -4 -10z"/>
<path d="M7567 2793 c-12 -12 -7 -19 14 -20 17 -2 18 1 9 13 -14 16 -14 16
-23 7z"/>
<path d="M8114 2786 c-19 -15 -19 -15 2 -13 11 0 21 7 21 14 0 16 1 16 -23 -1z"/>
<path d="M7640 2765 c0 -9 6 -12 15 -9 8 4 15 7 15 9 0 2 -7 5 -15 9 -9 3 -15
0 -15 -9z"/>
<path d="M5968 2543 c7 -3 16 -2 19 1 4 3 -2 6 -13 5 -11 0 -14 -3 -6 -6z"/>
<path d="M6481 2328 c-1 -29 3 -48 10 -48 6 0 9 7 5 15 -3 10 1 15 11 15 15 0
15 1 1 13 -9 6 -18 21 -21 32 -3 11 -5 -1 -6 -27z"/>
<path d="M6235 2300 c-18 -8 -18 -9 5 -9 14 0 32 4 40 9 12 8 12 10 -5 9 -11
0 -29 -4 -40 -9z"/>
<path d="M6615 2300 c-3 -5 1 -10 9 -10 9 0 16 5 16 10 0 6 -4 10 -9 10 -6 0
-13 -4 -16 -10z"/>
<path d="M5293 2665 c0 -8 4 -12 9 -9 5 3 6 10 3 15 -9 13 -12 11 -12 -6z"/>
<path d="M5098 2593 c7 -3 16 -2 19 1 4 3 -2 6 -13 5 -11 0 -14 -3 -6 -6z"/>
<path d="M4608 2573 c6 -2 18 -2 25 0 6 3 1 5 -13 5 -14 0 -19 -2 -12 -5z"/>
</g>
</svg>
